<svg width="100%" height="100%" viewBox="0 0 30 30" fill="none" xmlns="http://www.w3.org/2000/svg">
<path d="M11.7144 24.8756L11.7145 24.8757C12.0999 25.2223 12.4833 25.8197 12.8161 26.4972C13.1436 27.164 13.3984 27.8593 13.5434 28.3567C13.7566 29.0886 14.3737 29.4756 14.9867 29.492L15.0006 29.4924L15.0145 29.492C15.6275 29.4742 16.2432 29.0877 16.4565 28.3569L16.4566 28.3568C16.6016 27.8594 16.8564 27.1643 17.1839 26.4976C17.5166 25.8203 17.9002 25.2227 18.2858 24.8755C18.3637 24.8054 18.5362 24.6862 18.83 24.492C18.8791 24.4595 18.9308 24.4255 18.9848 24.3899C19.2364 24.2241 19.5387 24.0249 19.8713 23.7949C20.6807 23.2348 21.6842 22.4819 22.6624 21.5187C24.6182 19.593 26.5 16.7981 26.5 13C26.5 6.64886 21.3511 1.5 15 1.5C8.64886 1.5 3.5 6.64886 3.5 13C3.5 16.7981 5.3818 19.593 7.33761 21.5187C8.3158 22.4819 9.31928 23.2348 10.1287 23.7949C10.4613 24.0249 10.7636 24.2241 11.0152 24.3899C11.0692 24.4255 11.1209 24.4595 11.17 24.492C11.464 24.6864 11.6366 24.8056 11.7144 24.8756ZM14.5 12V12.5H15H18.3906C18.4553 12.5 18.4968 12.564 18.475 12.6207L15.5 20.3182V16V15.5H15H11.6094C11.5473 15.5 11.5042 15.4384 11.527 15.3793L14.5 7.68188V12Z" fill="#C7C7C7" stroke="#00A6A3"/>
<path d="M14.4734 7.01757C14.7257 6.98454 15.0027 7.15655 15.0027 7.47655V12H18.3933C18.8073 12 19.0931 12.4148 18.9441 12.8008L15.8953 20.6894C15.7103 21.1674 15.0027 21.0354 15.0027 20.5234V16H11.6121C11.1981 16 10.9142 15.5852 11.0632 15.1992L14.1101 7.31054C14.1791 7.13129 14.322 7.03739 14.4734 7.01757Z" fill="#00A6A3"/>
</svg>
