<svg width="100%" height="100%"  viewBox="0 0 30 30" fill="none" xmlns="http://www.w3.org/2000/svg">
<path d="M11.7144 24.8756L11.7145 24.8757C12.0999 25.2223 12.4833 25.8197 12.8161 26.4972C13.1436 27.164 13.3984 27.8593 13.5434 28.3567C13.7566 29.0886 14.3737 29.4756 14.9867 29.492L15.0006 29.4924L15.0145 29.492C15.6275 29.4742 16.2432 29.0877 16.4565 28.3569L16.4566 28.3568C16.6016 27.8594 16.8564 27.1643 17.1839 26.4976C17.5166 25.8203 17.9002 25.2227 18.2858 24.8755C18.3637 24.8054 18.5362 24.6862 18.83 24.492C18.8791 24.4595 18.9308 24.4255 18.9848 24.3899C19.2364 24.2241 19.5387 24.0249 19.8713 23.7949C20.6807 23.2348 21.6842 22.4819 22.6624 21.5187C24.6182 19.593 26.5 16.7981 26.5 13C26.5 6.64886 21.3511 1.5 15 1.5C8.64886 1.5 3.5 6.64886 3.5 13C3.5 16.7981 5.3818 19.593 7.33761 21.5187C8.3158 22.4819 9.31928 23.2348 10.1287 23.7949C10.4613 24.0249 10.7636 24.2241 11.0152 24.3899C11.0692 24.4255 11.1209 24.4595 11.17 24.492C11.464 24.6864 11.6366 24.8056 11.7144 24.8756Z" fill="#00A6A3" stroke="#047371"/>
<path d="M15 7C13.3496 7 12 8.34961 12 10V12.3594C11.3789 13.0645 11 13.9863 11 15C11 17.209 12.791 19 15 19C17.209 19 19 17.209 19 15C19 13.9863 18.6211 13.0645 18 12.3594V10C18 8.34961 16.6504 7 15 7ZM15 8C16.1094 8 17 8.89062 17 10V11.5469C16.4102 11.2051 15.7305 11 15 11C14.2695 11 13.5898 11.2051 13 11.5469V10C13 8.89062 13.8906 8 15 8Z" fill="#047371"/>
</svg>
